{
    "asset" : {
        "version" : "2.0",
        "generator" : "Khronos glTF Blender I/O v0.9.35"
    },
    "scene" : 0,
    "scenes" : [
        {
            "name" : "Scene",
            "nodes" : [
                0,
                1,
                2,
                3,
                4,
                5,
                6
            ]
        }
    ],
    "nodes" : [
        {
            "rotation" : [
                0.0128243463113904,
                0.006750968284904957,
                -0.0005258140154182911,
                0.9998948574066162
            ],
            "name" : "Phaser.004",
            "translation" : [
                0,
                0,
                -5.7220458984375e-06
            ],
            "mesh" : 0,
            "scale" : [
                0.00350950681604445,
                0.0025955229066312313,
                0.0124215641990304
            ]
        },
        {
            "rotation" : [
                0.0128243463113904,
                0.006750968284904957,
                -0.0005258140154182911,
                0.9998948574066162
            ],
            "name" : "Phaser.003",
            "translation" : [
                0,
                0,
                -5.7220458984375e-06
            ],
            "mesh" : 1,
            "scale" : [
                0.00350950681604445,
                0.0025955229066312313,
                0.0124215641990304
            ]
        },
        {
            "rotation" : [
                0.0128243463113904,
                0.006750968284904957,
                -0.0005258140154182911,
                0.9998948574066162
            ],
            "name" : "Phaser.002",
            "translation" : [
                0,
                0,
                -5.7220458984375e-06
            ],
            "mesh" : 2,
            "scale" : [
                0.00350950681604445,
                0.0025955229066312313,
                0.0124215641990304
            ]
        },
        {
            "rotation" : [
                0.0128243463113904,
                0.006750968284904957,
                -0.0005258140154182911,
                0.9998948574066162
            ],
            "name" : "Phaser.001",
            "translation" : [
                0,
                0,
                -5.7220458984375e-06
            ],
            "mesh" : 3,
            "scale" : [
                0.00350950681604445,
                0.0025955229066312313,
                0.0124215641990304
            ]
        },
        {
            "rotation" : [
                0.16907575726509094,
                0.7558803558349609,
                -0.27217137813568115,
                0.570947527885437
            ],
            "name" : "Lamp",
            "translation" : [
                4.076245307922363,
                5.903861999511719,
                -1.0054539442062378
            ]
        },
        {
            "rotation" : [
                0.483536034822464,
                0.33687159419059753,
                -0.20870360732078552,
                0.7804827094078064
            ],
            "name" : "Camera",
            "translation" : [
                7.481131553649902,
                5.34366512298584,
                6.5076398849487305
            ]
        },
        {
            "rotation" : [
                0.0128243463113904,
                0.006750968284904957,
                -0.0005258140154182911,
                0.9998948574066162
            ],
            "name" : "Phaser.000",
            "translation" : [
                0,
                0,
                -5.7220458984375e-06
            ],
            "mesh" : 4,
            "scale" : [
                0.00350950681604445,
                0.0025955229066312313,
                0.0124215641990304
            ]
        }
    ],
    "materials" : [
        {
            "name" : "Gold",
            "pbrMetallicRoughness" : {}
        },
        {
            "name" : "Mantel.silber.hell",
            "pbrMetallicRoughness" : {}
        },
        {
            "name" : "Mantel.dunkel.metallisch",
            "pbrMetallicRoughness" : {}
        },
        {
            "name" : "griff.schlange",
            "pbrMetallicRoughness" : {}
        },
        {
            "name" : "gehaeuse.silber.hell",
            "pbrMetallicRoughness" : {}
        },
        {
            "name" : "schwarz",
            "pbrMetallicRoughness" : {}
        },
        {
            "name" : "toedlich",
            "pbrMetallicRoughness" : {}
        },
        {
            "name" : "betaeubung",
            "pbrMetallicRoughness" : {}
        },
        {
            "name" : "mantel",
            "pbrMetallicRoughness" : {}
        },
        {
            "name" : "Abzugknopf.rot",
            "pbrMetallicRoughness" : {}
        },
        {
            "name" : "abzuging.silber",
            "pbrMetallicRoughness" : {}
        },
        {
            "name" : "LED",
            "pbrMetallicRoughness" : {},
            "emissiveFactor" : [
                0,
                0.24664181470870972,
                0.8000000715255737
            ]
        }
    ],
    "meshes" : [
        {
            "name" : "Cube.004",
            "primitives" : [
                {
                    "attributes" : {
                        "NORMAL" : 0,
                        "POSITION" : 1
                    },
                    "material" : 0,
                    "indices" : 2
                }
            ]
        },
        {
            "name" : "Cube.003",
            "primitives" : [
                {
                    "attributes" : {
                        "NORMAL" : 3,
                        "POSITION" : 4
                    },
                    "material" : 1,
                    "indices" : 5
                }
            ]
        },
        {
            "name" : "Cube.002",
            "primitives" : [
                {
                    "attributes" : {
                        "NORMAL" : 6,
                        "TEXCOORD_0" : 7,
                        "POSITION" : 8
                    },
                    "material" : 2,
                    "indices" : 9
                },
                {
                    "attributes" : {
                        "NORMAL" : 10,
                        "TEXCOORD_0" : 11,
                        "POSITION" : 12
                    },
                    "material" : 3,
                    "indices" : 13
                }
            ]
        },
        {
            "name" : "Cube.001",
            "primitives" : [
                {
                    "attributes" : {
                        "NORMAL" : 14,
                        "POSITION" : 15
                    },
                    "material" : 4,
                    "indices" : 16
                },
                {
                    "attributes" : {
                        "NORMAL" : 17,
                        "POSITION" : 18
                    },
                    "material" : 5,
                    "indices" : 19
                },
                {
                    "attributes" : {
                        "NORMAL" : 20,
                        "POSITION" : 21
                    },
                    "material" : 6,
                    "indices" : 22
                },
                {
                    "attributes" : {
                        "NORMAL" : 23,
                        "POSITION" : 24
                    },
                    "material" : 7,
                    "indices" : 25
                },
                {
                    "attributes" : {
                        "NORMAL" : 26,
                        "POSITION" : 27
                    },
                    "material" : 8,
                    "indices" : 28
                }
            ]
        },
        {
            "name" : "Cube.016",
            "primitives" : [
                {
                    "attributes" : {
                        "NORMAL" : 29,
                        "POSITION" : 30
                    },
                    "material" : 9,
                    "indices" : 31
                },
                {
                    "attributes" : {
                        "NORMAL" : 32,
                        "POSITION" : 33
                    },
                    "material" : 10,
                    "indices" : 34
                },
                {
                    "attributes" : {
                        "NORMAL" : 35,
                        "POSITION" : 36
                    },
                    "material" : 11,
                    "indices" : 37
                }
            ]
        }
    ],
    "accessors" : [
        {
            "componentType" : 5126,
            "count" : 120,
            "bufferView" : 0,
            "type" : "VEC3"
        },
        {
            "bufferView" : 1,
            "type" : "VEC3",
            "componentType" : 5126,
            "min" : [
                -1.3271484375,
                1.63311767578125,
                -0.9583740234375
            ],
            "max" : [
                1.217041015625,
                3.6337890625,
                1.3828125
            ],
            "count" : 120
        },
        {
            "componentType" : 5123,
            "count" : 708,
            "bufferView" : 2,
            "type" : "SCALAR"
        },
        {
            "componentType" : 5126,
            "count" : 212,
            "bufferView" : 3,
            "type" : "VEC3"
        },
        {
            "bufferView" : 4,
            "type" : "VEC3",
            "componentType" : 5126,
            "min" : [
                -1.064697265625,
                -0.06475830078125,
                -2.385009765625
            ],
            "max" : [
                0.95458984375,
                3.26873779296875,
                1.4168701171875
            ],
            "count" : 212
        },
        {
            "componentType" : 5123,
            "count" : 1260,
            "bufferView" : 5,
            "type" : "SCALAR"
        },
        {
            "componentType" : 5126,
            "count" : 1281,
            "bufferView" : 6,
            "type" : "VEC3"
        },
        {
            "componentType" : 5126,
            "count" : 1281,
            "bufferView" : 7,
            "type" : "VEC2"
        },
        {
            "bufferView" : 8,
            "type" : "VEC3",
            "componentType" : 5126,
            "min" : [
                -1.0838623046875,
                -10.4468994140625,
                -2.7303466796875
            ],
            "max" : [
                0.95458984375,
                0.21612548828125,
                1.3006591796875
            ],
            "count" : 1281
        },
        {
            "componentType" : 5123,
            "count" : 3534,
            "bufferView" : 9,
            "type" : "SCALAR"
        },
        {
            "componentType" : 5126,
            "count" : 193,
            "bufferView" : 10,
            "type" : "VEC3"
        },
        {
            "componentType" : 5126,
            "count" : 193,
            "bufferView" : 11,
            "type" : "VEC2"
        },
        {
            "bufferView" : 12,
            "type" : "VEC3",
            "componentType" : 5126,
            "min" : [
                -1.064697265625,
                -9.38226318359375,
                -1.3868408203125
            ],
            "max" : [
                0.95458984375,
                -0.299560546875,
                0.11181640625
            ],
            "count" : 193
        },
        {
            "componentType" : 5123,
            "count" : 786,
            "bufferView" : 13,
            "type" : "SCALAR"
        },
        {
            "componentType" : 5126,
            "count" : 1344,
            "bufferView" : 14,
            "type" : "VEC3"
        },
        {
            "bufferView" : 15,
            "type" : "VEC3",
            "componentType" : 5126,
            "min" : [
                -0.665283203125,
                -0.05572509765625,
                -0.4666748046875
            ],
            "max" : [
                0.55517578125,
                1.59442138671875,
                1.3551025390625
            ],
            "count" : 1344
        },
        {
            "componentType" : 5123,
            "count" : 7092,
            "bufferView" : 16,
            "type" : "SCALAR"
        },
        {
            "componentType" : 5126,
            "count" : 256,
            "bufferView" : 17,
            "type" : "VEC3"
        },
        {
            "bufferView" : 18,
            "type" : "VEC3",
            "componentType" : 5126,
            "min" : [
                -0.75146484375,
                -0.17230224609375,
                -0.4515380859375
            ],
            "max" : [
                0.641357421875,
                1.71099853515625,
                1.34033203125
            ],
            "count" : 256
        },
        {
            "componentType" : 5123,
            "count" : 768,
            "bufferView" : 19,
            "type" : "SCALAR"
        },
        {
            "componentType" : 5126,
            "count" : 64,
            "bufferView" : 20,
            "type" : "VEC3"
        },
        {
            "bufferView" : 21,
            "type" : "VEC3",
            "componentType" : 5126,
            "min" : [
                -0.4732666015625,
                0.20379638671875,
                1.2679443359375
            ],
            "max" : [
                0.3631591796875,
                1.33489990234375,
                1.3272705078125
            ],
            "count" : 64
        },
        {
            "componentType" : 5123,
            "count" : 192,
            "bufferView" : 22,
            "type" : "SCALAR"
        },
        {
            "componentType" : 5126,
            "count" : 64,
            "bufferView" : 23,
            "type" : "VEC3"
        },
        {
            "bufferView" : 24,
            "type" : "VEC3",
            "componentType" : 5126,
            "min" : [
                -0.4580078125,
                0.22454833984375,
                -0.4112548828125
            ],
            "max" : [
                0.347900390625,
                1.31414794921875,
                -0.30859375
            ],
            "count" : 64
        },
        {
            "componentType" : 5123,
            "count" : 192,
            "bufferView" : 25,
            "type" : "SCALAR"
        },
        {
            "componentType" : 5126,
            "count" : 128,
            "bufferView" : 26,
            "type" : "VEC3"
        },
        {
            "bufferView" : 27,
            "type" : "VEC3",
            "componentType" : 5126,
            "min" : [
                -0.766845703125,
                -0.193115234375,
                0.210205078125
            ],
            "max" : [
                0.65673828125,
                1.7318115234375,
                0.7420654296875
            ],
            "count" : 128
        },
        {
            "componentType" : 5123,
            "count" : 576,
            "bufferView" : 28,
            "type" : "SCALAR"
        },
        {
            "componentType" : 5126,
            "count" : 352,
            "bufferView" : 29,
            "type" : "VEC3"
        },
        {
            "bufferView" : 30,
            "type" : "VEC3",
            "componentType" : 5126,
            "min" : [
                -0.1951904296875,
                -1.67510986328125,
                -0.22021484375
            ],
            "max" : [
                1.010986328125,
                2.382080078125,
                0.5172119140625
            ],
            "count" : 352
        },
        {
            "componentType" : 5123,
            "count" : 936,
            "bufferView" : 31,
            "type" : "SCALAR"
        },
        {
            "componentType" : 5126,
            "count" : 256,
            "bufferView" : 32,
            "type" : "VEC3"
        },
        {
            "bufferView" : 33,
            "type" : "VEC3",
            "componentType" : 5126,
            "min" : [
                0.3798828125,
                -1.73834228515625,
                -0.2337646484375
            ],
            "max" : [
                0.8919677734375,
                -0.837646484375,
                -0.0390625
            ],
            "count" : 256
        },
        {
            "componentType" : 5123,
            "count" : 564,
            "bufferView" : 34,
            "type" : "SCALAR"
        },
        {
            "componentType" : 5126,
            "count" : 128,
            "bufferView" : 35,
            "type" : "VEC3"
        },
        {
            "bufferView" : 36,
            "type" : "VEC3",
            "componentType" : 5126,
            "min" : [
                -0.357177734375,
                2.486083984375,
                -1.3944091796875
            ],
            "max" : [
                0.2470703125,
                3.07080078125,
                -1.2723388671875
            ],
            "count" : 128
        },
        {
            "componentType" : 5123,
            "count" : 756,
            "bufferView" : 37,
            "type" : "SCALAR"
        }
    ],
    "bufferViews" : [
        {
            "buffer" : 0,
            "byteOffset" : 0,
            "byteLength" : 1440
        },
        {
            "buffer" : 0,
            "byteOffset" : 1440,
            "byteLength" : 1440
        },
        {
            "buffer" : 0,
            "byteOffset" : 2880,
            "byteLength" : 1416
        },
        {
            "buffer" : 0,
            "byteOffset" : 4296,
            "byteLength" : 2544
        },
        {
            "buffer" : 0,
            "byteOffset" : 6840,
            "byteLength" : 2544
        },
        {
            "buffer" : 0,
            "byteOffset" : 9384,
            "byteLength" : 2520
        },
        {
            "buffer" : 0,
            "byteOffset" : 11904,
            "byteLength" : 15372
        },
        {
            "buffer" : 0,
            "byteOffset" : 27276,
            "byteLength" : 10248
        },
        {
            "buffer" : 0,
            "byteOffset" : 37524,
            "byteLength" : 15372
        },
        {
            "buffer" : 0,
            "byteOffset" : 52896,
            "byteLength" : 7068
        },
        {
            "buffer" : 0,
            "byteOffset" : 59964,
            "byteLength" : 2316
        },
        {
            "buffer" : 0,
            "byteOffset" : 62280,
            "byteLength" : 1544
        },
        {
            "buffer" : 0,
            "byteOffset" : 63824,
            "byteLength" : 2316
        },
        {
            "buffer" : 0,
            "byteOffset" : 66140,
            "byteLength" : 1572
        },
        {
            "buffer" : 0,
            "byteOffset" : 67712,
            "byteLength" : 16128
        },
        {
            "buffer" : 0,
            "byteOffset" : 83840,
            "byteLength" : 16128
        },
        {
            "buffer" : 0,
            "byteOffset" : 99968,
            "byteLength" : 14184
        },
        {
            "buffer" : 0,
            "byteOffset" : 114152,
            "byteLength" : 3072
        },
        {
            "buffer" : 0,
            "byteOffset" : 117224,
            "byteLength" : 3072
        },
        {
            "buffer" : 0,
            "byteOffset" : 120296,
            "byteLength" : 1536
        },
        {
            "buffer" : 0,
            "byteOffset" : 121832,
            "byteLength" : 768
        },
        {
            "buffer" : 0,
            "byteOffset" : 122600,
            "byteLength" : 768
        },
        {
            "buffer" : 0,
            "byteOffset" : 123368,
            "byteLength" : 384
        },
        {
            "buffer" : 0,
            "byteOffset" : 123752,
            "byteLength" : 768
        },
        {
            "buffer" : 0,
            "byteOffset" : 124520,
            "byteLength" : 768
        },
        {
            "buffer" : 0,
            "byteOffset" : 125288,
            "byteLength" : 384
        },
        {
            "buffer" : 0,
            "byteOffset" : 125672,
            "byteLength" : 1536
        },
        {
            "buffer" : 0,
            "byteOffset" : 127208,
            "byteLength" : 1536
        },
        {
            "buffer" : 0,
            "byteOffset" : 128744,
            "byteLength" : 1152
        },
        {
            "buffer" : 0,
            "byteOffset" : 129896,
            "byteLength" : 4224
        },
        {
            "buffer" : 0,
            "byteOffset" : 134120,
            "byteLength" : 4224
        },
        {
            "buffer" : 0,
            "byteOffset" : 138344,
            "byteLength" : 1872
        },
        {
            "buffer" : 0,
            "byteOffset" : 140216,
            "byteLength" : 3072
        },
        {
            "buffer" : 0,
            "byteOffset" : 143288,
            "byteLength" : 3072
        },
        {
            "buffer" : 0,
            "byteOffset" : 146360,
            "byteLength" : 1128
        },
        {
            "buffer" : 0,
            "byteOffset" : 147488,
            "byteLength" : 1536
        },
        {
            "buffer" : 0,
            "byteOffset" : 149024,
            "byteLength" : 1536
        },
        {
            "buffer" : 0,
            "byteOffset" : 150560,
            "byteLength" : 1512
        }
    ],
    "buffers" : [
        {
            "uri" : "data:application/octet-stream;base64,",
            "byteLength" : 152072
        }
    ]
}
